<?xml version="1.0" encoding="UTF-8"?>
<svg id="Capa_1" data-name="Capa 1" xmlns="http://www.w3.org/2000/svg" viewBox="0 0 964.62 634.58">
  <defs>
    <style>
      .cls-1 {
        letter-spacing: -.02em;
      }

      .cls-2, .cls-3 {
        fill: #1a2c6c;
      }

      @media (prefers-color-scheme: dark) {
        .cls-2, .cls-3 { fill: #ffffff; }
        .cls-6 { fill: #a8c8f0; }
        .cls-11 { fill: #c8ddf8; }
      }

      .cls-4 {
        letter-spacing: 0em;
      }

      .cls-5 {
        letter-spacing: 0em;
      }

      .cls-3 {
        font-family: Montserrat-Regular, Montserrat;
        font-size: 50.89px;
      }

      .cls-6 {
        fill: #307abe;
      }

      .cls-7 {
        letter-spacing: 0em;
      }

      .cls-8 {
        letter-spacing: -.04em;
      }

      .cls-9 {
        letter-spacing: -.01em;
      }

      .cls-10 {
        letter-spacing: -.02em;
      }

      .cls-11 {
        fill: #284998;
      }
    </style>
  </defs>
  <g>
    <rect class="cls-2" x="220.96" y="314.94" width="26.53" height="219.43"/>
    <polygon class="cls-2" points="560.63 534.38 533.06 534.38 636.5 314.94 661.51 314.94 767.23 534.38 739.38 534.38 648.51 340.74 560.63 534.38"/>
    <path class="cls-2" d="M488.24,534.38h27.85l-105.72-219.43h-25.01l-103.44,219.43h27.57l26.17-57.66h125.52l27.06,57.66ZM345.08,455.97l52.3-115.23,54.08,115.23h-106.37Z"/>
    <path class="cls-2" d="M943.59,334.04c1.04-2.29-28.29-13.62-30.1-14.2-32.86-10.5-80.51-10.55-107.02,15.03-13.37,12.9-19.23,32.73-15.44,50.88,9.61,45.93,72.3,45.13,107.08,58.37,13.12,4.99,30.34,14.39,30.19,30.54-.15,15.47-5.88,27.35-20.79,34.24-12.82,5.92-28.06,6.84-41.98,6.85-20.74,0-42.36-6.06-59.05-18.62l-12.45-9.75s-10.01,18.4-10.02,18.41c-.46.84,6.48,6.53,7.02,6.99,6.95,5.83,14.97,10.34,23.36,13.74,22.13,8.97,46.74,11.28,70.55,9.71,31.66-2.09,59.82-17.44,66.92-49.12,3.67-16.38-.84-34.75-13.2-46.46-12.33-11.69-28.87-17.81-45.04-22.03-14.32-3.73-28.97-6.27-43-11.06-11.14-3.8-23.18-8.8-30.3-18.68-7.59-10.54-6.44-25.17,1.1-35.43,10.3-14,28.75-17.81,45.11-18.72,13.12-.74,26.36.83,38.94,4.62,2.65.8,30.58,11.16,29.37,13.91,0,0,8.72-19.21,8.73-19.23Z"/>
    <polygon class="cls-2" points="647.64 506.05 676.48 428.7 638.03 472.55 647.64 506.05"/>
    <polygon class="cls-11" points="638.03 472.55 603.48 464.89 676.48 428.7 638.03 472.55"/>
  </g>
  <g>
    <path class="cls-2" d="M378.08,148.87s-187.83,119.37-247.51,260.67c0,0-52.66,130.78,86.01,136.92,0,0-75.43,15.23-115.55-31-15.75-18.15-22.49-43.17-22.49-66.82,0-49.79,29.04-95.02,55.1-135.55,24.5-38.11,52.19-74.18,82.71-107.66,15.33-16.82,31.38-32.98,48.14-48.37,8.99-8.26,18.19-16.31,27.58-24.11,2.76-2.29,27.25-24.15,29.06-22.91,0,0,56.93,38.84,56.93,38.84Z"/>
    <path class="cls-11" d="M195.83,209.8s-124.54,146.09-127.7,226.49c0,0-16.29,69.08,48.35,112.58,0,0-92.41-19.36-78.8-132.51,13.61-113.15,123.78-237.78,123.78-237.78l34.37,31.22Z"/>
    <path class="cls-6" d="M109.94,224.01S-23.65,407.73,44.2,517.37c0,0-52.7-42.4-43.01-135.69,9.69-93.28,64.21-182.93,64.21-182.93l44.54,25.26Z"/>
    <path class="cls-2" d="M412.71,131.1s60.77-29.22,83.03-35.72l-83.03-45.92-61.69,40.82,61.69,40.82Z"/>
    <path class="cls-11" d="M219.68,184.69l44.84-41.08-44.84-36.37s-15.55,20.81-35.74,42.02l35.74,35.43Z"/>
    <polygon class="cls-6" points="210.89 66.82 255.44 23.99 214.74 0 170.2 41.55 210.89 66.82"/>
    <polygon class="cls-6" points="107.24 92.95 81.11 77.96 54.55 107.24 80.89 123.36 107.24 92.95"/>
  </g>
  <text class="cls-3" transform="translate(220.06 611.22)"><tspan x="0" y="0">Gestión in</tspan><tspan class="cls-1" x="256.99" y="0">t</tspan><tspan class="cls-7" x="276.68" y="0">eg</tspan><tspan class="cls-8" x="342.28" y="0">r</tspan><tspan x="360.6" y="0">al de p</tspan><tspan class="cls-9" x="530.72" y="0">r</tspan><tspan class="cls-10" x="550.47" y="0">oy</tspan><tspan x="608.43" y="0">e</tspan><tspan class="cls-4" x="639.17" y="0">c</tspan><tspan class="cls-1" x="668.12" y="0">t</tspan><tspan class="cls-5" x="687.82" y="0">os</tspan></text>
</svg>